<?xml version="1.0" encoding="UTF-8"?>
<svg id="Layer_1" data-name="Layer 1" xmlns="http://www.w3.org/2000/svg" xmlns:xlink="http://www.w3.org/1999/xlink" viewBox="0 0 122.81 44.47">
  <defs>
    <style>
      .cls-1 {
        stroke: url(#linear-gradient-2);
      }

      .cls-1, .cls-2 {
        fill: none;
        stroke-miterlimit: 10;
        stroke-width: .75px;
      }

      .cls-3 {
        fill: #231f20;
      }

      .cls-2 {
        stroke: url(#linear-gradient);
      }
    </style>
    <linearGradient id="linear-gradient" x1="4.75" y1="17.34" x2="18.02" y2="27.35" gradientTransform="translate(-6.2 -1.43) rotate(3.38) scale(1.35 1.01) skewX(5.91)" gradientUnits="userSpaceOnUse">
      <stop offset="0" stop-color="#009fd1"/>
      <stop offset=".31" stop-color="#3888c2"/>
      <stop offset="1" stop-color="#c3539f"/>
    </linearGradient>
    <linearGradient id="linear-gradient-2" x1="43" y1="13.13" x2="105.03" y2="59.87" gradientTransform="matrix(1,0,0,1,0,0)" xlink:href="#linear-gradient"/>
  </defs>
  <g>
    <polygon class="cls-3" points="15.29 5.66 11.94 20.23 20.48 22.31 6.77 38.76 10.78 23.88 8.56 23.37 4.68 22.48 2.42 21.96 15.29 5.66"/>
    <polygon class="cls-2" points="9.54 24.62 .66 22.58 17.27 1.54 13.14 19.49 22.27 21.71 4.61 42.91 9.54 24.62"/>
  </g>
  <g>
    <path class="cls-3" d="M32.53,10.59h4.08l6.5,15.37h-4.54l-1.09-2.75h-5.91l-1.09,2.75h-4.43l6.48-15.37ZM36.24,19.92l-1.7-4.32-1.72,4.32h3.42Z"/>
    <path class="cls-3" d="M44.99,10.7h4.47l3.64,5.91,3.64-5.91h4.47v15.26h-4.21v-8.77l-3.9,5.97h-.09l-3.88-5.95v8.74h-4.14v-15.26Z"/>
    <path class="cls-3" d="M64.32,10.7h6.56c3.84,0,6.32,1.96,6.32,5.34v.04c0,3.62-2.77,5.52-6.54,5.52h-2.12v4.36h-4.23v-15.26ZM70.57,18.28c1.48,0,2.42-.79,2.42-2.01v-.04c0-1.31-.94-1.98-2.44-1.98h-2.01v4.03h2.03Z"/>
    <path class="cls-3" d="M79.39,10.7h12.28v3.58h-8.09v2.33h7.33v3.34h-7.33v2.42h8.2v3.6h-12.39v-15.26Z"/>
    <path class="cls-3" d="M94.35,10.7h7.22c2.35,0,3.95.61,4.97,1.64.89.89,1.35,2.09,1.35,3.55v.04c0,2.35-1.22,3.9-3.14,4.71l3.64,5.32h-4.86l-3.07-4.62h-1.88v4.62h-4.23v-15.26ZM101.39,18.02c1.42,0,2.27-.7,2.27-1.81v-.04c0-1.22-.89-1.83-2.29-1.83h-2.79v3.69h2.81Z"/>
    <path class="cls-3" d="M110.43,10.7h12.28v3.58h-8.09v2.33h7.33v3.34h-7.33v2.42h8.2v3.6h-12.39v-15.26Z"/>
  </g>
  <g>
    <path class="cls-3" d="M25.67,31.26v-.02c0-1.58,1.19-2.89,2.83-2.89,1.02,0,1.63.35,2.18.89l-.43.46c-.48-.45-.99-.77-1.76-.77-1.24,0-2.17,1.01-2.17,2.29v.02c0,1.29.93,2.31,2.17,2.31.77,0,1.27-.3,1.81-.81l.42.41c-.58.59-1.23.98-2.24.98-1.62,0-2.81-1.27-2.81-2.88Z"/>
    <path class="cls-3" d="M33.65,28.44h2.41c.7,0,1.24.21,1.59.56.28.28.43.66.43,1.1v.02c0,.93-.64,1.48-1.52,1.63l1.72,2.29h-.78l-1.62-2.17h-1.6v2.17h-.63v-5.6ZM36,31.3c.83,0,1.44-.43,1.44-1.15v-.02c0-.7-.53-1.1-1.43-1.1h-1.73v2.27h1.72Z"/>
    <path class="cls-3" d="M41.24,28.44h4.05v.58h-3.41v1.91h3.05v.58h-3.05v1.96h3.45v.58h-4.09v-5.6Z"/>
    <path class="cls-3" d="M50.47,28.4h.59l2.55,5.64h-.68l-.66-1.48h-3.05l-.66,1.48h-.65l2.55-5.64ZM52.03,31.99l-1.27-2.85-1.28,2.85h2.55Z"/>
    <path class="cls-3" d="M57.28,29.02h-1.89v-.58h4.41v.58h-1.89v5.01h-.63v-5.01Z"/>
    <path class="cls-3" d="M62.81,28.44h.63v5.6h-.63v-5.6Z"/>
    <path class="cls-3" d="M66.4,28.44h.7l1.99,4.82,2-4.82h.68l-2.41,5.64h-.56l-2.41-5.64Z"/>
    <path class="cls-3" d="M74.68,28.44h4.04v.58h-3.41v1.91h3.05v.58h-3.05v1.96h3.45v.58h-4.08v-5.6Z"/>
    <path class="cls-3" d="M85.8,31.26v-.02c0-1.54,1.13-2.89,2.81-2.89.94,0,1.53.27,2.09.74l-.41.48c-.42-.38-.92-.64-1.7-.64-1.24,0-2.13,1.05-2.13,2.29v.02c0,1.33.86,2.33,2.21,2.33.64,0,1.23-.25,1.62-.56v-1.39h-1.7v-.57h2.31v2.23c-.52.47-1.29.86-2.25.86-1.76,0-2.85-1.28-2.85-2.88Z"/>
    <path class="cls-3" d="M94.12,28.44h2.41c.7,0,1.24.21,1.59.56.28.28.43.66.43,1.1v.02c0,.93-.64,1.48-1.52,1.63l1.72,2.29h-.78l-1.62-2.17h-1.6v2.17h-.63v-5.6ZM96.47,31.3c.83,0,1.44-.43,1.44-1.15v-.02c0-.7-.53-1.1-1.43-1.1h-1.73v2.27h1.72Z"/>
    <path class="cls-3" d="M101.45,31.26v-.02c0-1.54,1.16-2.89,2.86-2.89s2.85,1.34,2.85,2.88v.02c0,1.54-1.16,2.89-2.86,2.89s-2.85-1.33-2.85-2.88ZM106.51,31.26v-.02c0-1.27-.93-2.31-2.21-2.31s-2.19,1.02-2.19,2.29v.02c0,1.27.93,2.31,2.21,2.31s2.19-1.02,2.19-2.29Z"/>
    <path class="cls-3" d="M110.21,31.7v-3.25h.63v3.21c0,1.21.63,1.89,1.71,1.89s1.69-.62,1.69-1.85v-3.25h.63v3.21c0,1.64-.94,2.48-2.33,2.48s-2.33-.85-2.33-2.43Z"/>
    <path class="cls-3" d="M118.17,28.44h2.09c1.26,0,2.09.67,2.09,1.78v.02c0,1.21-1.01,1.83-2.2,1.83h-1.36v1.98h-.63v-5.6ZM120.19,31.49c.93,0,1.54-.5,1.54-1.23v-.02c0-.8-.6-1.22-1.5-1.22h-1.42v2.46h1.38Z"/>
  </g>
  <line class="cls-1" x1="25.67" y1="36.5" x2="122.36" y2="36.5"/>
</svg>